 <svg  version="1.0" xmlns="http://www.w3.org/2000/svg"  width="300.000000pt" height="300.000000pt" viewBox="0 0 300.000000 300.000000"  preserveAspectRatio="xMidYMid meet">  <g transform="translate(0.000000,300.000000) scale(0.100000,-0.100000)" fill="#ca973f" stroke="none"> <path d="M1400 2594 c-14 -2 -52 -9 -85 -15 -379 -65 -721 -363 -844 -734 -106 -322 -70 -621 115 -936 121 -207 351 -381 610 -462 368 -116 790 -5 1071 281 137 140 235 311 290 508 26 91 28 113 28 274 -1 160 -3 184 -28 274 -49 177 -143 346 -271 484 -126 136 -357 263 -566 308 -65 15 -274 26 -320 18z m282 -45 c239 -30 510 -193 662 -397 194 -263 256 -546 191 -868 -47 -231 -177 -450 -354 -598 -100 -83 -196 -141 -302 -182 -105 -40 -151 -51 -274 -64 -362 -38 -727 120 -942 408 -149 200 -215 400 -215 647 0 235 53 408 182 600 119 176 272 305 456 384 187 81 356 100 596 70z"/> <path d="M1455 2493 c-204 -18 -364 -75 -515 -183 -155 -111 -252 -224 -336 -395 -121 -246 -117 -586 10 -847 153 -315 431 -514 782 -558 340 -43 693 121 906 420 117 164 188 378 188 565 0 149 -44 345 -104 463 -107 209 -330 405 -544 477 -126 43 -290 67 -387 58z m273 -43 c156 -37 279 -102 419 -220 223 -188 337 -468 320 -780 -27 -466 -383 -854 -846 -921 -229 -33 -497 38 -691 182 -145 107 -277 281 -333 439 -60 169 -77 324 -53 486 26 180 75 301 172 432 116 155 274 277 436 337 87 33 125 43 243 65 70 13 234 3 333 -20z"/> <path d="M1134 2335 c-7 -17 4 -37 17 -30 12 8 12 45 -1 45 -6 0 -13 -7 -16 -15z"/> <path d="M1333 2342 c-8 -5 -9 -22 -1 -61 5 -29 7 -59 4 -67 -4 -9 2 -14 15 -14 18 0 20 4 14 30 -8 38 9 40 37 5 19 -25 58 -35 58 -15 0 6 -4 10 -9 10 -5 0 -17 7 -26 16 -15 15 -15 18 1 35 14 16 15 24 6 44 -9 20 -19 25 -49 25 -21 0 -43 -4 -50 -8z m71 -21 c10 -16 -5 -41 -24 -41 -16 0 -30 18 -30 41 0 12 47 12 54 0z"/> <path d="M1581 2324 c-25 -32 -26 -52 -5 -82 35 -51 109 -48 133 4 16 35 14 48 -10 78 -16 20 -29 26 -59 26 -30 0 -43 -6 -59 -26z m93 -10 c21 -21 20 -47 -3 -68 -46 -41 -107 18 -66 64 22 24 48 26 69 4z"/> <path d="M1141 2283 c-29 -14 -48 -28 -43 -32 15 -9 42 -75 42 -100 0 -20 1 -20 48 1 58 25 58 26 45 39 -8 8 -18 6 -35 -5 -14 -9 -28 -13 -31 -9 -13 13 -7 32 13 38 11 3 20 13 20 21 0 11 -4 12 -19 4 -27 -14 -41 -13 -41 5 0 9 12 18 30 22 21 4 30 11 30 24 0 11 -1 19 -2 18 -2 0 -27 -12 -57 -26z"/> <path d="M1832 2268 c-19 -19 -14 -44 13 -62 24 -16 35 -46 16 -46 -21 0 -41 13 -41 26 0 19 -16 18 -24 -2 -7 -19 -8 -17 21 -33 34 -17 71 -13 83 9 9 17 6 25 -20 51 -16 17 -30 35 -30 40 0 17 39 9 53 -11 14 -20 27 -17 27 5 0 13 -42 35 -68 35 -10 0 -23 -5 -30 -12z"/> <path d="M882 1897 c-51 -52 -56 -74 -9 -49 58 31 79 50 75 68 -6 30 -22 26 -66 -19z"/> <path d="M1649 1790 c-84 -44 -129 -130 -129 -245 0 -124 35 -189 125 -231 92 -43 179 -31 245 35 127 128 97 373 -55 442 -53 25 -139 24 -186 -1z m139 -14 c65 -33 92 -101 93 -231 1 -81 -3 -103 -24 -149 -38 -83 -98 -106 -176 -67 -59 31 -76 80 -76 221 0 99 3 121 22 160 36 72 99 98 161 66z m123 -91 c5 4 9 -3 9 -14 0 -11 5 -23 10 -26 14 -9 2 -27 -13 -19 -7 3 -3 -2 8 -11 20 -17 20 -17 0 -13 -12 2 -19 11 -19 21 1 9 -1 17 -5 17 -3 0 -7 17 -7 38 -1 20 0 29 3 19 2 -9 9 -15 14 -12z m-328 -45 c3 -11 1 -17 -4 -14 -6 3 -8 -6 -5 -20 3 -15 0 -26 -6 -26 -7 0 -6 -5 2 -15 14 -16 4 -38 -13 -29 -7 3 -5 0 4 -8 8 -7 14 -26 13 -43 -1 -16 3 -33 8 -36 5 -3 3 -9 -6 -12 -9 -4 -15 -3 -15 1 1 4 1 9 0 12 -2 3 -4 21 -7 39 -2 19 -10 39 -17 43 -9 6 -9 8 0 8 8 0 11 11 9 30 -2 17 1 30 7 30 8 0 7 4 0 11 -13 13 -6 42 8 33 5 -3 9 0 9 5 0 18 7 12 13 -9z m350 -152 c-10 -21 -10 -27 0 -31 6 -3 4 -6 -7 -6 -13 -1 -17 -6 -13 -22 4 -17 3 -18 -9 -8 -9 7 -11 16 -5 23 4 6 8 35 7 63 -1 39 3 53 14 56 21 4 29 -42 13 -75z"/> <path d="M2103 1790 c-36 -21 -63 -66 -63 -103 0 -56 21 -85 98 -138 42 -28 87 -63 99 -78 51 -59 13 -156 -61 -154 -51 1 -85 27 -110 84 -11 27 -24 49 -28 49 -5 0 -8 -32 -8 -71 0 -64 2 -70 18 -65 11 4 36 -1 58 -10 100 -42 208 16 215 116 6 82 -22 125 -122 185 -67 41 -99 77 -99 112 0 32 42 73 75 73 34 0 83 -49 91 -89 4 -18 13 -31 22 -31 11 0 13 7 8 31 -3 17 -6 45 -6 61 0 23 -4 29 -16 24 -9 -3 -25 1 -37 9 -30 21 -96 19 -134 -5z m33 -168 c-3 -5 10 -16 29 -25 19 -9 35 -22 35 -27 0 -6 4 -8 10 -5 5 3 22 -5 37 -19 15 -15 24 -26 19 -26 -5 0 -1 -9 9 -20 26 -29 1 -25 -32 6 -15 14 -23 23 -16 20 6 -4 14 -2 18 4 3 5 -3 10 -14 10 -30 0 -34 1 -56 13 -11 6 -23 11 -26 12 -12 0 -57 50 -53 57 3 5 14 8 25 8 11 0 18 -4 15 -8z"/> <path d="M700 1783 c0 -6 10 -13 23 -15 22 -3 22 -4 25 -216 l2 -212 -25 -10 c-14 -5 -25 -14 -25 -20 0 -7 52 -10 157 -8 l157 3 13 60 c15 74 15 75 3 75 -5 0 -18 -17 -29 -37 -27 -53 -49 -69 -103 -76 -77 -10 -78 -10 -78 114 l0 109 48 0 c51 0 72 -12 72 -42 0 -10 5 -18 10 -18 6 0 10 30 10 70 0 72 -8 87 -25 48 -8 -19 -20 -24 -62 -28 l-53 -6 0 98 0 98 50 0 c67 0 96 -15 115 -62 21 -53 31 -42 25 27 l-5 57 -153 2 c-111 1 -152 -2 -152 -11z m95 -78 c0 -25 -2 -45 -6 -45 -3 0 -6 -7 -6 -15 0 -10 6 -14 16 -10 12 5 13 3 4 -6 -20 -20 -33 0 -28 43 3 22 8 44 11 49 3 5 -1 9 -8 9 -9 0 -9 3 2 10 8 5 15 10 15 10 0 0 0 -20 0 -45z m3 -140 c2 -32 -1 -45 -10 -45 -9 0 -13 15 -14 45 0 59 20 59 24 0z m-7 -69 c-9 -11 -9 -15 1 -19 10 -4 10 -8 -2 -16 -13 -10 -13 -12 0 -21 9 -5 10 -10 3 -10 -12 0 -12 -17 0 -37 5 -8 3 -13 -3 -13 -6 0 -8 -4 -5 -10 3 -5 2 -10 -3 -10 -9 0 -13 115 -5 138 3 6 10 12 15 12 6 0 6 -6 -1 -14z"/> <path d="M1090 1791 c0 -6 11 -16 25 -21 l25 -10 0 -214 0 -214 -25 -6 c-53 -14 -22 -26 65 -26 87 0 118 12 65 26 -24 6 -25 10 -26 78 -1 39 -2 82 -2 96 -1 20 4 26 26 28 24 3 30 -5 81 -106 30 -60 62 -112 71 -116 27 -10 115 -7 115 4 0 6 -11 15 -24 20 -28 10 -48 38 -105 142 -38 71 -40 77 -22 83 33 10 81 73 81 106 0 48 -26 96 -62 116 -40 21 -288 33 -288 14z m227 -36 c33 -23 48 -83 34 -128 -15 -44 -49 -67 -101 -67 -22 0 -40 -5 -40 -11 0 -5 -5 -7 -12 -3 -7 5 -9 0 -6 -14 5 -16 2 -19 -11 -15 -13 5 -13 3 3 -15 11 -12 14 -22 9 -22 -20 0 -34 48 -20 68 6 8 6 12 -2 12 -6 0 -11 5 -11 11 0 5 5 7 12 3 7 -5 9 -2 5 9 -4 11 -2 14 8 11 8 -3 13 -10 12 -14 -1 -4 3 -8 8 -9 12 -1 12 -2 14 109 l1 90 38 0 c21 0 47 -7 59 -15z m-125 -77 c3 -23 -1 -39 -8 -42 -9 -4 -11 6 -8 35 3 27 1 39 -8 39 -9 0 -9 3 2 10 17 10 17 10 22 -42z m209 25 c7 -39 3 -76 -8 -80 -18 -7 -27 3 -17 19 12 19 13 37 3 44 -5 3 -7 10 -4 15 7 11 24 12 26 2z m-50 -233 c5 0 9 -9 9 -21 0 -11 -5 -17 -10 -14 -6 4 -8 10 -5 15 3 4 -2 13 -10 20 -8 7 -11 18 -7 28 6 14 7 13 10 -5 2 -13 8 -23 13 -23z m45 -93 c-3 -13 0 -17 9 -13 17 6 29 -9 20 -24 -5 -8 -11 -8 -19 -1 -7 6 -16 7 -20 3 -4 -4 -7 -2 -6 3 1 6 1 12 0 15 -1 3 -3 17 -4 32 -2 23 0 26 11 16 8 -6 12 -20 9 -31z"/> <path d="M750 1195 c-14 -8 -33 -14 -44 -15 -13 0 -16 -5 -11 -17 4 -10 9 -26 12 -35 7 -24 35 -32 49 -14 6 9 18 16 27 16 23 0 28 14 16 49 -12 35 -14 36 -49 16z"/> <path d="M2206 1172 c-15 -29 -15 -29 31 -51 25 -12 46 -21 47 -19 5 8 26 60 26 63 0 14 -20 2 -25 -15 -9 -29 -28 -25 -21 5 7 27 -8 35 -18 10 -3 -8 -10 -15 -16 -15 -7 0 -8 6 0 19 13 24 13 31 0 31 -5 0 -16 -13 -24 -28z"/> <path d="M2153 1085 c-23 -34 -20 -53 4 -33 11 9 20 5 41 -15 31 -30 42 -33 42 -14 0 7 -14 23 -30 36 -17 12 -28 25 -26 29 3 5 2 13 -2 19 -5 7 -15 -1 -29 -22z"/> <path d="M792 1083 c-23 -9 -33 -40 -21 -67 15 -32 33 -38 64 -24 65 29 23 118 -43 91z m48 -23 c20 -13 2 -44 -29 -48 -26 -4 -38 22 -21 43 14 17 29 19 50 5z"/> <path d="M2084 989 c-3 -6 2 -29 12 -52 23 -54 21 -52 39 -37 12 10 13 15 4 21 -10 6 -10 11 0 23 9 11 17 13 26 6 8 -6 15 -6 23 2 9 9 -1 16 -40 30 -62 21 -55 21 -64 7z"/> <path d="M876 961 c-55 -57 7 -111 64 -56 16 16 27 32 24 37 -4 5 -19 -3 -34 -17 -18 -17 -35 -25 -44 -22 -23 9 -20 24 9 49 25 22 32 38 17 38 -5 0 -21 -13 -36 -29z"/> <path d="M2016 921 c-4 -6 -4 -26 -1 -43 l7 -32 -27 18 c-14 10 -34 15 -42 12 -14 -6 -14 -8 0 -24 9 -9 22 -29 29 -44 10 -19 18 -24 28 -18 12 7 10 14 -10 36 -25 27 -11 25 22 -3 21 -18 33 -1 18 26 -19 36 -10 46 13 17 13 -16 26 -25 30 -20 3 5 -9 27 -27 49 -22 26 -35 35 -40 26z"/> <path d="M995 891 c3 -12 -4 -30 -20 -49 -16 -19 -22 -33 -15 -37 10 -6 49 32 50 49 0 4 9 6 20 3 32 -8 32 8 0 31 -36 27 -43 27 -35 3z"/> <path d="M1080 829 c0 -6 -10 -24 -21 -41 -14 -19 -18 -33 -12 -39 11 -11 65 70 56 83 -7 12 -23 9 -23 -3z"/> <path d="M1884 832 c-6 -4 -1 -24 16 -54 19 -35 29 -45 40 -38 12 8 12 11 -2 27 -8 10 -22 30 -29 45 -8 15 -19 24 -25 20z"/> <path d="M1803 794 c-36 -16 -44 -34 -14 -34 13 0 23 -11 31 -35 6 -19 15 -35 19 -35 17 0 18 13 3 42 -12 24 -12 35 -3 49 20 33 15 35 -36 13z"/> <path d="M1141 781 c-26 -26 -27 -56 -3 -73 10 -7 21 -21 25 -30 7 -20 29 -25 25 -5 -2 6 7 22 20 35 25 25 28 41 10 64 -22 28 -55 31 -77 9z m58 -19 c5 -10 6 -24 1 -32 -7 -11 -11 -11 -24 -1 -14 11 -16 11 -16 -3 0 -10 -4 -14 -10 -11 -15 9 -12 31 6 49 20 21 31 20 43 -2z"/> <path d="M1272 728 c-13 -50 -1 -73 39 -73 30 0 34 4 45 40 8 29 8 42 0 47 -7 4 -15 -7 -21 -30 -7 -23 -18 -38 -29 -40 -17 -4 -18 1 -13 42 8 53 -8 63 -21 14z"/> <path d="M1710 757 c0 -1 4 -18 10 -36 l10 -35 -33 32 c-36 35 -64 43 -49 15 5 -10 12 -35 16 -55 4 -21 12 -38 18 -38 6 0 8 11 5 30 -8 36 -1 38 24 5 25 -31 52 -24 38 12 -5 13 -9 35 -9 49 0 15 -6 24 -15 24 -8 0 -15 -1 -15 -3z"/> <path d="M1401 685 c-1 -49 1 -55 19 -56 11 -1 25 -2 32 -3 6 -1 13 5 16 12 2 7 -4 11 -19 10 -12 -2 -24 3 -26 10 -3 7 4 12 16 12 11 0 23 5 26 10 3 6 -3 10 -14 10 -12 0 -21 6 -21 14 0 9 7 12 19 9 10 -3 22 0 25 6 5 7 -2 11 -18 11 -13 0 -31 2 -39 5 -11 5 -14 -6 -16 -50z"/> <path d="M1579 736 c-2 -2 -2 -27 -1 -55 3 -38 8 -51 19 -51 12 0 14 8 9 38 -3 20 -6 45 -6 55 0 16 -11 23 -21 13z"/> </g> </svg> 