<?xml version="1.0" standalone="no"?>
<!DOCTYPE svg PUBLIC "-//W3C//DTD SVG 20010904//EN"
 "http://www.w3.org/TR/2001/REC-SVG-20010904/DTD/svg10.dtd">
<svg version="1.0" xmlns="http://www.w3.org/2000/svg"
 width="300.000000pt" height="300.000000pt" viewBox="0 0 300.000000 300.000000"
 preserveAspectRatio="xMidYMid meet">
<metadata>
Created by potrace 1.10, written by Peter Selinger 2001-2011
</metadata>
<g transform="translate(0.000000,300.000000) scale(0.100000,-0.100000)"
fill="#ca973f" stroke="none">
<path d="M1400 2594 c-14 -2 -52 -9 -85 -15 -191 -33 -395 -135 -540 -270
-341 -320 -453 -794 -285 -1206 112 -274 271 -452 515 -577 217 -112 439 -149
660 -110 445 77 773 383 898 839 18 68 21 106 21 255 0 160 -2 184 -27 274
-61 223 -192 429 -357 561 -134 109 -312 195 -480 231 -65 15 -274 26 -320 18z
m288 -45 c41 -6 101 -20 135 -31 97 -32 257 -113 312 -159 11 -9 49 -42 85
-72 145 -121 267 -335 320 -560 41 -174 15 -453 -59 -627 -138 -324 -420 -569
-734 -640 -94 -21 -118 -23 -267 -22 -151 0 -159 1 -270 37 -284 91 -455 223
-621 480 -36 56 -96 211 -121 314 -29 122 -28 327 2 466 37 168 143 365 269
500 134 144 332 259 512 299 157 35 267 39 437 15z"/>
<path d="M1460 2494 c-209 -21 -372 -78 -516 -180 -207 -147 -342 -341 -401
-574 -60 -241 -17 -537 108 -744 90 -148 218 -277 354 -358 147 -87 387 -147
540 -133 227 20 390 82 555 213 288 227 431 585 376 941 -35 227 -112 377
-278 542 -119 118 -219 185 -350 231 -122 43 -295 71 -388 62z m250 -39 c147
-31 288 -100 410 -201 139 -115 210 -208 273 -358 57 -137 72 -219 71 -396 -1
-173 -15 -246 -77 -388 -160 -370 -542 -611 -932 -589 -292 17 -541 149 -716
378 -102 135 -148 232 -184 394 -58 258 -1 548 148 758 194 271 519 435 836
421 57 -3 134 -11 171 -19z"/>
<path d="M1134 2335 c-7 -17 4 -37 17 -30 12 8 12 45 -1 45 -6 0 -13 -7 -16
-15z"/>
<path d="M1327 2343 c-14 -3 -15 -8 -7 -18 6 -7 11 -38 13 -69 1 -44 5 -56 17
-53 10 2 14 12 12 30 -2 19 2 27 13 27 8 0 15 -4 15 -10 0 -5 11 -17 26 -26
19 -13 28 -14 37 -5 8 8 8 11 0 11 -6 0 -19 7 -28 16 -15 15 -15 18 1 35 14
16 15 24 6 44 -10 21 -18 25 -49 24 -21 -1 -46 -3 -56 -6z m77 -22 c10 -16 -5
-41 -24 -41 -16 0 -30 18 -30 41 0 12 47 12 54 0z"/>
<path d="M1580 2323 c-46 -59 20 -142 91 -113 33 14 52 60 39 95 -20 51 -95
62 -130 18z m94 -9 c33 -32 8 -84 -39 -84 -24 0 -45 25 -45 54 0 20 28 46 50
46 10 0 26 -7 34 -16z"/>
<path d="M1180 2299 c-8 -5 -33 -16 -54 -25 -22 -9 -35 -19 -29 -22 17 -11 52
-92 46 -108 -4 -10 7 -9 43 7 59 26 58 25 49 38 -4 8 -15 6 -35 -4 -37 -19
-40 -19 -40 4 0 11 9 23 20 26 11 3 20 13 20 21 0 11 -4 12 -19 4 -27 -14 -41
-13 -41 5 0 9 12 18 30 22 21 4 30 11 30 24 0 21 0 21 -20 8z"/>
<path d="M1832 2268 c-20 -20 -14 -43 19 -67 21 -15 28 -26 21 -33 -13 -13
-52 0 -52 18 0 19 -16 18 -24 -2 -7 -19 -8 -17 21 -33 35 -18 71 -13 84 11 10
19 8 25 -20 50 -17 15 -31 32 -31 38 0 18 38 11 53 -10 14 -20 27 -17 27 5 0
13 -42 35 -68 35 -10 0 -23 -5 -30 -12z"/>
<path d="M882 1897 c-51 -52 -56 -74 -9 -49 58 31 79 50 75 68 -6 30 -22 26
-66 -19z"/>
<path d="M1662 1797 c-12 -7 -19 -17 -15 -22 4 -4 2 -5 -5 -1 -20 12 -70 -40
-98 -99 -27 -57 -33 -169 -12 -239 25 -81 118 -146 210 -146 70 0 102 13 148
59 130 131 96 380 -62 445 -45 19 -134 20 -166 3z m139 -30 c54 -36 72 -86 77
-208 4 -92 1 -113 -17 -154 -26 -59 -26 -63 -1 -40 11 10 20 26 20 37 0 10 5
18 11 18 5 0 8 4 4 9 -3 5 -1 12 4 15 5 3 8 32 7 64 -2 56 -1 58 24 56 32 -2
30 1 18 -36 -5 -18 -10 -39 -11 -46 0 -7 -7 -10 -16 -7 -12 4 -12 2 2 -9 16
-12 16 -14 2 -20 -11 -4 -14 -13 -10 -25 3 -11 -1 -25 -8 -32 -20 -19 -56 -44
-65 -44 -4 -1 -21 -9 -39 -18 -52 -28 -116 -16 -153 27 -10 13 -16 14 -28 4
-13 -10 -14 -10 -8 0 5 8 -1 15 -17 21 -30 11 -41 27 -27 36 5 3 10 12 10 18
0 7 -4 6 -10 -3 -7 -12 -11 -10 -18 10 -6 17 -5 29 6 41 19 22 35 14 22 -11
-7 -13 -6 -20 2 -22 6 -2 12 -14 13 -26 1 -12 -3 -19 -9 -16 -6 3 0 -3 14 -14
14 -12 26 -20 27 -18 1 1 -5 24 -13 51 -22 70 -14 229 15 287 36 76 107 99
172 55z m86 -34 c2 -6 -1 -14 -6 -18 -7 -4 -8 0 -4 11 4 11 3 15 -5 10 -6 -3
-13 -2 -16 3 -4 5 2 8 11 7 9 -2 19 -8 20 -13z m36 -48 c1 -11 6 -26 10 -32 5
-7 10 -22 12 -33 3 -15 -2 -20 -19 -20 -26 0 -38 9 -30 22 3 5 11 4 19 -2 10
-9 13 -7 11 7 -2 10 -10 17 -19 15 -12 -2 -15 2 -10 14 4 12 3 15 -5 10 -8 -4
-10 -1 -7 8 3 9 7 24 10 33 7 20 23 7 28 -22z m-326 8 c0 -10 -4 -23 -9 -29
-4 -6 -5 -20 -1 -29 4 -13 3 -16 -5 -11 -7 4 -12 3 -12 -3 0 -5 4 -12 9 -15 9
-6 7 -54 -3 -64 -4 -3 -17 -7 -29 -9 -18 -2 -19 -1 -7 7 13 9 13 11 0 20 -10
6 -11 10 -2 10 6 0 12 5 12 11 0 5 -6 7 -12 4 -7 -4 -4 1 6 9 11 9 14 16 8 16
-20 0 -14 19 14 45 15 14 22 25 16 25 -6 0 -9 7 -6 15 8 20 21 19 21 -2z m340
-114 c-14 -8 -22 -8 -30 0 -8 8 -3 11 19 11 25 -1 27 -2 11 -11z m-357 -64 c0
-1 -9 -10 -20 -20 -20 -18 -21 -18 -14 0 5 13 4 16 -4 11 -7 -4 -12 -3 -12 3
0 12 21 20 38 13 6 -2 12 -5 12 -7z"/>
<path d="M1563 1565 c0 -8 4 -12 9 -9 5 3 6 10 3 15 -9 13 -12 11 -12 -6z"/>
<path d="M2103 1790 c-58 -35 -79 -110 -48 -170 8 -16 51 -52 98 -83 47 -31
88 -66 95 -81 41 -91 -38 -173 -123 -128 -16 9 -33 15 -38 14 -4 -1 -6 1 -5 5
4 12 -36 103 -44 103 -5 0 -8 -32 -8 -71 0 -61 2 -70 16 -65 8 3 38 -1 65 -10
91 -30 171 0 202 76 18 43 13 107 -11 140 -18 24 -36 38 -146 117 -52 38 -67
80 -42 118 37 57 106 40 144 -35 25 -50 49 -68 39 -29 -4 13 -7 41 -7 63 0 31
-3 37 -16 32 -9 -3 -25 1 -37 9 -30 21 -96 19 -134 -5z m-18 -60 c-3 -5 -11
-10 -16 -10 -6 0 -7 5 -4 10 3 6 11 10 16 10 6 0 7 -4 4 -10z m-3 -47 c-2 -16
-1 -25 3 -21 13 12 65 -47 60 -70 -3 -15 0 -19 12 -15 11 4 11 8 3 13 -7 4 -8
10 -4 13 12 7 55 -28 46 -37 -3 -4 0 -5 8 -2 16 6 70 -36 70 -54 0 -5 5 -10
11 -10 17 0 1 -17 -21 -23 -11 -3 -23 0 -27 5 -4 7 -1 8 8 4 8 -4 4 1 -8 10
-37 27 -23 43 17 20 13 -8 13 -7 0 8 -9 9 -31 17 -50 19 -19 2 -34 8 -33 14 1
6 -5 10 -15 8 -25 -4 -74 45 -61 61 8 9 5 11 -13 7 -15 -3 -19 -2 -10 4 10 7
8 13 -7 27 -20 19 -18 46 4 46 8 0 11 -9 7 -27z m224 -220 c0 -10 -5 -21 -10
-25 -6 -4 -5 -12 3 -21 8 -11 9 -17 1 -22 -6 -3 -8 -10 -5 -14 2 -5 -8 -19
-23 -32 l-27 -24 24 28 c14 15 20 27 14 27 -5 0 -10 7 -10 15 0 8 5 15 11 15
7 0 7 3 1 8 -20 15 -8 61 16 62 4 0 6 -8 5 -17z"/>
<path d="M700 1788 c0 -5 8 -12 18 -15 9 -4 20 -11 24 -17 4 -6 8 -102 8 -214
l0 -202 -25 -12 c-14 -6 -25 -15 -25 -20 0 -5 71 -7 157 -6 l157 3 6 25 c15
56 20 110 10 110 -5 0 -18 -17 -29 -37 -10 -21 -27 -45 -37 -54 -21 -18 -112
-33 -131 -21 -7 5 -13 47 -15 117 l-3 110 50 -4 c56 -3 75 -14 75 -42 0 -11 5
-19 10 -19 6 0 10 30 10 70 0 72 -8 87 -25 48 -8 -19 -20 -24 -62 -28 l-53 -6
0 98 0 98 50 0 c68 0 96 -15 115 -63 19 -48 30 -41 27 16 -5 76 4 72 -162 72
-82 1 -150 -3 -150 -7z m103 -43 c-5 -39 -5 -51 0 -102 2 -24 0 -43 -5 -43 -4
0 -8 -5 -8 -11 0 -5 3 -8 8 -6 4 3 7 -14 7 -36 0 -37 -15 -66 -36 -67 -8 0 -5
52 4 67 4 6 3 15 -3 18 -8 5 -7 11 1 21 6 8 7 14 2 14 -11 0 -11 45 0 56 10
11 9 26 -2 19 -11 -6 -7 28 5 47 4 7 3 8 -4 4 -7 -4 -12 -1 -12 8 0 10 6 13
18 10 9 -3 7 1 -6 8 -26 16 -23 23 11 23 21 0 23 -4 20 -30z m0 -275 c-3 -11
-10 -17 -17 -14 -6 3 -2 -2 8 -10 20 -16 20 -16 0 -17 -18 0 -18 -1 1 -9 16
-7 17 -9 3 -9 -9 -1 -20 -5 -23 -11 -3 -6 1 -7 9 -4 9 3 16 1 16 -5 0 -6 -5
-11 -11 -11 -5 0 -7 -5 -4 -10 4 -6 9 -8 13 -6 4 2 7 -8 7 -24 1 -28 -5 -28
-45 -2 -2 2 2 7 10 12 8 6 10 10 4 10 -15 0 -9 97 7 116 17 20 28 17 22 -6z
m198 -143 c-8 -8 -14 -7 -23 2 -10 11 -10 13 0 7 6 -4 12 -2 12 4 0 6 5 8 11
4 8 -4 8 -9 0 -17z"/>
<path d="M775 1631 c-3 -5 -2 -12 3 -15 5 -3 9 1 9 9 0 17 -3 19 -12 6z"/>
<path d="M1090 1793 c0 -5 11 -15 25 -21 l25 -12 0 -214 0 -214 -25 -6 c-53
-14 -22 -26 65 -26 86 0 117 11 66 24 -23 6 -25 11 -28 83 -5 121 -4 123 45
120 31 -1 41 2 39 11 -1 8 1 12 5 10 10 -5 53 39 45 46 -3 3 0 6 6 6 7 0 12
11 12 25 0 14 6 25 13 25 8 0 7 4 -3 10 -13 9 -13 10 0 10 12 0 12 2 2 8 -7 5
-10 16 -7 24 4 11 -5 28 -27 49 -24 23 -27 29 -10 20 12 -7 27 -9 32 -6 5 3
12 0 16 -6 5 -8 3 -9 -6 -4 -8 5 -11 3 -8 -6 3 -8 12 -13 21 -11 11 2 15 -2
11 -13 -4 -9 -1 -15 7 -15 9 0 10 -3 4 -8 -15 -10 -12 -35 5 -50 13 -12 13
-13 -2 -9 -11 4 -15 0 -13 -11 3 -20 -14 -44 -26 -36 -5 3 -9 0 -9 -6 0 -7
-11 -21 -25 -31 -13 -11 -22 -26 -19 -33 8 -20 -14 -30 -31 -16 -8 7 -15 10
-15 6 0 -20 102 -204 115 -210 26 -10 115 -7 115 3 0 6 -12 16 -27 23 -19 9
-47 46 -85 113 l-57 100 27 13 c36 17 72 71 72 105 0 43 -24 91 -56 112 -24
16 -52 20 -161 23 -81 3 -133 1 -133 -5z m110 -34 c0 -10 -5 -19 -11 -19 -5 0
-8 -4 -4 -9 10 -17 13 -101 3 -95 -6 4 -5 -3 1 -15 9 -16 9 -21 -1 -21 -9 0
-9 -3 2 -10 8 -5 11 -10 6 -10 -5 0 -3 -7 4 -15 8 -10 9 -19 3 -27 -5 -7 -8
-23 -7 -35 0 -12 -6 -25 -14 -28 -22 -8 -30 5 -9 16 19 11 23 29 6 29 -5 0 -7
-4 -4 -10 3 -5 1 -10 -4 -10 -12 0 -10 28 3 49 6 10 5 12 -2 7 -7 -4 -12 -1
-12 9 0 10 5 13 12 9 8 -5 9 -2 4 12 -16 38 -18 74 -4 74 9 0 9 3 -2 10 -10 6
-11 10 -2 10 6 0 12 7 12 15 0 8 -4 15 -10 15 -5 0 -7 7 -4 15 4 9 1 15 -7 15
-8 0 -5 6 7 16 10 8 14 13 9 10 -6 -2 -17 -1 -24 3 -7 5 -1 8 18 9 24 0 31 -4
31 -19z m117 -4 c33 -23 48 -83 34 -128 -15 -43 -49 -67 -96 -67 l-35 0 0 105
0 105 38 0 c21 0 47 -7 59 -15z m43 -295 c0 -12 4 -18 10 -15 6 4 9 3 8 -2 -1
-4 4 -18 11 -31 7 -13 10 -30 7 -38 -3 -9 -1 -12 5 -9 5 4 21 -4 34 -17 l24
-24 -29 0 c-16 0 -27 3 -24 8 3 4 -2 8 -10 8 -9 0 -16 7 -16 15 0 7 -8 19 -17
24 -10 6 -13 11 -8 11 6 0 11 9 12 21 2 17 -1 18 -13 8 -12 -10 -13 -9 -8 6 5
13 4 16 -4 11 -7 -4 -12 -3 -12 3 0 5 6 12 13 14 7 3 4 6 -6 6 -10 1 -15 6
-12 11 3 6 1 10 -6 10 -9 0 -8 4 1 15 10 12 14 12 26 0 8 -7 14 -23 14 -35z
m-160 -12 c0 -5 -8 -7 -17 -4 -17 6 -17 5 0 -8 14 -11 15 -15 4 -19 -8 -3 -20
-1 -28 4 -12 7 -12 9 0 9 8 0 11 3 8 7 -9 9 13 34 24 27 5 -3 9 -10 9 -16z m0
-48 c0 -5 -8 -14 -17 -19 -16 -9 -16 -10 -2 -11 9 0 20 -7 23 -16 3 -8 2 -12
-4 -9 -6 3 -10 1 -10 -4 0 -6 5 -11 11 -11 5 0 8 -4 5 -9 -8 -12 -36 -8 -45 7
-4 6 -5 27 -3 45 3 24 9 33 23 34 10 1 19 -2 19 -7z"/>
<path d="M1373 1395 c0 -8 4 -12 9 -9 5 3 6 10 3 15 -9 13 -12 11 -12 -6z"/>
<path d="M750 1195 c-14 -8 -33 -14 -44 -15 -13 0 -16 -5 -11 -17 4 -10 9 -26
12 -35 7 -24 35 -32 49 -14 6 9 18 16 27 16 24 0 28 14 14 49 -13 35 -13 35
-47 16z m34 -30 c3 -9 0 -15 -9 -15 -8 0 -15 7 -15 15 0 8 4 15 9 15 5 0 11
-7 15 -15z m-34 -21 c0 -8 -7 -14 -15 -14 -15 0 -21 21 -9 33 10 9 24 -2 24
-19z"/>
<path d="M2209 1171 l-16 -28 44 -22 c25 -12 46 -21 47 -19 13 22 25 62 20 67
-4 3 -8 2 -11 -4 -9 -25 -22 -37 -32 -30 -9 5 -9 10 0 21 6 8 9 17 5 21 -3 4
-13 -2 -20 -13 -8 -10 -18 -16 -22 -11 -4 4 -2 13 4 19 14 14 16 28 5 28 -5 0
-15 -13 -24 -29z"/>
<path d="M2153 1085 c-23 -34 -20 -53 4 -33 11 9 20 5 41 -15 31 -30 42 -33
42 -14 0 7 -14 23 -30 36 -17 12 -28 25 -26 29 3 5 2 13 -2 19 -5 7 -15 -1
-29 -22z"/>
<path d="M780 1070 c-25 -25 -25 -31 0 -63 22 -27 40 -27 73 1 23 21 21 48 -5
66 -30 21 -44 20 -68 -4z m66 -15 c8 -20 -13 -45 -38 -45 -24 0 -34 26 -18 45
16 19 49 19 56 0z"/>
<path d="M2084 989 c-3 -6 2 -29 12 -52 23 -54 21 -52 39 -37 12 10 13 15 4
21 -10 6 -10 11 0 23 9 11 17 13 26 6 8 -6 15 -6 23 2 9 9 -1 16 -40 30 -62
21 -55 21 -64 7z m46 -23 c0 -11 -19 -15 -25 -6 -3 5 1 10 9 10 9 0 16 -2 16
-4z"/>
<path d="M877 962 c-32 -33 -33 -43 -9 -65 26 -24 44 -21 75 11 35 37 22 51
-14 16 -17 -16 -34 -24 -43 -21 -23 9 -20 24 9 49 25 22 32 38 17 38 -5 0 -20
-13 -35 -28z"/>
<path d="M2016 921 c-4 -6 -4 -26 -1 -43 l7 -32 -27 18 c-27 18 -62 15 -50 -4
4 -6 11 -7 17 -4 6 4 9 3 6 -2 -3 -5 2 -23 11 -41 13 -22 21 -29 32 -23 11 7
9 14 -11 36 -25 27 -11 25 23 -4 23 -20 33 -8 19 23 -19 42 -14 52 11 21 13
-16 26 -25 30 -20 3 5 -9 27 -27 49 -22 26 -35 35 -40 26z"/>
<path d="M995 891 c3 -12 -4 -30 -20 -49 -17 -20 -22 -33 -15 -37 11 -7 29 11
51 48 8 13 14 15 23 8 7 -6 16 -8 19 -5 6 6 -45 54 -58 54 -3 0 -4 -8 0 -19z"/>
<path d="M1063 795 c-13 -24 -19 -47 -14 -49 10 -7 61 75 54 86 -9 15 -18 7
-40 -37z"/>
<path d="M1884 832 c-14 -10 38 -103 53 -94 7 5 2 22 -16 54 -15 26 -31 44
-37 40z"/>
<path d="M1803 793 c-33 -17 -47 -41 -17 -29 11 4 20 -5 31 -32 18 -45 19 -46
31 -38 6 4 3 21 -8 44 -15 31 -16 38 -4 45 15 8 19 27 7 26 -5 0 -23 -8 -40
-16z"/>
<path d="M1141 781 c-24 -24 -27 -51 -9 -69 17 -17 33 -15 18 3 -15 18 -5 51
18 60 19 7 43 -20 35 -41 -6 -16 -23 -19 -23 -4 0 6 -4 10 -10 10 -8 0 -8 -23
-1 -72 0 -5 6 -8 11 -8 6 0 10 6 8 13 -2 6 7 22 20 35 25 25 28 41 10 64 -22
28 -55 31 -77 9z"/>
<path d="M1272 728 c-13 -47 -1 -72 35 -76 28 -3 32 1 46 42 13 37 13 45 2 50
-9 3 -15 -7 -20 -34 -7 -40 -32 -61 -41 -35 -4 8 -3 31 0 50 9 45 -10 47 -22
3z"/>
<path d="M1713 748 c2 -7 8 -24 12 -38 7 -24 6 -24 -27 8 -37 35 -65 44 -50
15 5 -10 12 -35 16 -55 4 -21 11 -38 16 -38 13 0 13 26 -1 53 -9 17 -4 15 22
-9 40 -37 63 -36 48 2 -5 14 -9 36 -9 50 0 15 -6 24 -16 24 -9 0 -14 -6 -11
-12z"/>
<path d="M1402 685 l-1 -55 35 0 c19 0 34 4 34 10 0 5 -10 9 -21 7 -12 -1 -24
4 -26 11 -3 7 4 12 16 12 11 0 23 5 26 10 3 6 -3 10 -14 10 -12 0 -21 6 -21
14 0 9 7 12 19 9 10 -3 22 0 25 6 5 7 -2 11 -18 11 -13 0 -31 2 -38 5 -11 5
-15 -6 -16 -50z"/>
<path d="M1579 736 c-2 -2 -2 -27 -1 -55 3 -38 8 -51 19 -51 12 0 14 8 9 38
-3 20 -6 45 -6 55 0 16 -11 23 -21 13z"/>
</g>
</svg>
